<svg xmlns="http://www.w3.org/2000/svg" viewBox="0 0 16 16" aria-hidden="true">
  <path fill="#000000" d="M13.601 2.326A7.854 7.854 0 0 0 8.165 0C3.734 0 .119 3.602.099 8.029a7.892 7.892 0 0 0 1.205 4.16L0 16l3.877-1.016a7.912 7.912 0 0 0 4.287 1.261h.004c4.43 0 8.045-3.603 8.065-8.029a7.88 7.88 0 0 0-2.332-5.89M8.164 14.943a6.6 6.6 0 0 1-3.372-.93l-.242-.145-2.3.603.614-2.243-.159-.245a6.6 6.6 0 0 1-1.007-3.505c.017-3.65 3.017-6.62 6.685-6.62a6.65 6.65 0 0 1 4.725 1.97 6.63 6.63 0 0 1 1.958 4.713c-.018 3.648-3.018 6.62-6.686 6.62m3.615-4.955c-.197-.099-1.17-.578-1.352-.644-.182-.066-.315-.099-.448.1-.132.197-.513.644-.63.776-.115.132-.23.149-.428.05-.197-.1-.833-.306-1.588-.977-.588-.522-.986-1.166-1.103-1.363-.115-.198-.012-.304.087-.403.09-.089.197-.23.296-.346.1-.115.132-.197.198-.33.066-.132.033-.248-.017-.347-.05-.099-.448-1.08-.613-1.48-.161-.387-.325-.335-.448-.341a8 8 0 0 0-.38-.019c-.132 0-.347.05-.53.248-.182.197-.695.677-.695 1.65 0 .974.712 1.914.811 2.046.1.132 1.399 2.136 3.393 2.995.474.204.844.326 1.132.417.476.151.908.13 1.25.079.381-.057 1.17-.479 1.336-.942.165-.462.165-.858.116-.942-.05-.083-.182-.132-.38-.23"/>
</svg>
